# xmcd
# 
# Track frame offsets:
#     150
#     11837
#     30590
#     44050
#     58315
#     77440
#     91227
#     114860
#     131990
#     148690
#     159490
#     173670
#     184280
#     200187
#     211760
# 
# Disc length: 2985
# 
# Revision: 24
# Processed by: cddbd v1.5.2PL0 Copyright (c) Steve Scherf et al.
# Submitted via: BonkEnc v1.0.8
# 
DISCID=d50ba70f
DTITLE=Cranberries, The - Wake Up And Smell The Coffee
DYEAR=2001
DGENRE=Rock
TTITLE0=Never Grow Old
TTITLE1=Analyse
TTITLE2=Time Is Ticking Out
TTITLE3=Dying Inside
TTITLE4=This Is The Day
TTITLE5=The Concept
TTITLE6=Wake Up And Smell The Coffee
TTITLE7=Pretty Eyes
TTITLE8=I Really Hope
TTITLE9=Every Morning
TTITLE10=Do You Know
TTITLE11=Carry On
TTITLE12=Chocolate Brown
TTITLE13=Salvation (Live in Paris)
TTITLE14=In The Ghetto
EXTD=Produced by Stephen Street YEAR: 2001
EXTT0=
EXTT1=
EXTT2=
EXTT3=
EXTT4=
EXTT5=
EXTT6=
EXTT7=
EXTT8=
EXTT9=
EXTT10=
EXTT11=
EXTT12=
EXTT13=
EXTT14=
PLAYORDER=
